# AST/ASF file generated using VICON BodyLanguage
# -----------------------------------------------
:version 1.10
:name VICON
:units
  mass 1.0
  length 0.45
  angle deg
:documentation
   .ast/.asf automatically generated from VICON data using
   VICON BodyBuilder and BodyLanguage model FoxedUp or BRILLIANT.MOD
:root
   order TX TY TZ RX RY RZ
   axis XYZ
   position 0 0 0  
   orientation 0 0 0 
:bonedata
  begin
     id 1 
     name lhipjoint
     direction 0.662698 -0.695252 0.27831 
     length 2.53073 
     axis 0 0 0  XYZ
  end
  begin
     id 2 
     name lfemur
     direction 0.34202 -0.939693 0  
     length 7.16147  
     axis 0 0 20  XYZ
    dof rx ry rz
    limits (-160.0 20.0)
           (-70.0 70.0)
           (-60.0 70.0)
  end
  begin
     id 3 
     name ltibia
     direction 0.34202 -0.939693 0   
     length 7.63967   
     axis 0 0 20   XYZ
    dof rx
    limits (-10.0 170.0)
  end
  begin
     id 4 
     name lfoot
     direction 0.0938457 -0.257721 0.961651   
     length 1.89793   
     axis -90 7.62852e-016 20   XYZ
    dof rx rz
    limits (-45.0 90.0)
           (-70.0 20.0)
  end
  begin
     id 5 
     name ltoes
     direction -0.00116841 -0.0030592 0.999995   
     length 0.955649   
     axis -90 7.62852e-016 20   XYZ
    dof rx
    limits (-90.0 20.0)
  end
  begin
     id 6 
     name rhipjoint
     direction -0.649445 -0.705948 0.282592   
     length 2.49238  
     axis 0 0 0  XYZ 
  end
  begin
     id 7 
     name rfemur
     direction -0.34202 -0.939693 0   
     length 6.90728   
     axis 0 0 -20   XYZ
    dof rx ry rz
    limits (-160.0 20.0)
           (-70.0 70.0)
           (-70.0 60.0)
  end
  begin
     id 8 
     name rtibia
     direction -0.34202 -0.939693 0   
     length 7.72868   
     axis 0 0 -20   XYZ
    dof rx
    limits (-10.0 170.0)
 end
 begin
     id 9 
     name rfoot
     direction -0.0920068 -0.252865 0.963117   
     length 1.97476  
     axis -90 -7.62852e-016 -20   XYZ
    dof rx rz
    limits (-45.0 90.0)
           (-20.0 70.0)
  end
  begin
     id 10 
     name rtoes
     direction 0.000391322 0.00230649 0.999997   
     length 0.992641   
     axis -90 -7.62852e-016 -20   XYZ
    dof rx
    limits (-90.0 20.0)
  end
  begin
     id 11 
     name lowerback
     direction -0.00875327 0.998321 -0.0572635   
     length 2.20024   
     axis 0 0 0   XYZ
    dof rx ry rz
    limits (-20.0 45.0)
           (-30.0 30.0)
           (-30.0 30.0)
  end
  begin
     id 12 
     name upperback
     direction 0.00753931 0.999972 -0.000360425   
     length 2.20538   
     axis 0 0 0   XYZ
    dof rx ry rz
    limits (-20.0 45.0)
           (-30.0 30.0)
           (-30.0 30.0)
  end
  begin
     id 13 
     name thorax
     direction 0.0117767 0.999601 0.0256663   
     length 2.21508   
     axis 0 0 0   XYZ
    dof rx ry rz
    limits (-20.0 45.0)
           (-30.0 30.0)
           (-30.0 30.0)
  end
  begin
     id 14 
     name lowerneck
     direction 0.060228 0.994909 0.0807986   
     length 1.7607   
     axis 0 0 0   XYZ
    dof rx ry rz
    limits (-20.0 45.0)
           (-30.0 30.0)
           (-30.0 30.0)
  end
  begin
     id 15 
     name upperneck
     direction -0.0563647 0.959594 -0.275685   
     length 1.75612   
     axis 0 0 0   XYZ
    dof rx ry rz
    limits (-20.0 45.0)
           (-30.0 30.0)
           (-30.0 30.0)
  end
  begin
     id 16
     name head
     direction -0.0161544 0.99458 -0.102714  
     length 1.79288  
     axis 0 0 0   XYZ
    dof rx ry rz
    limits (-20.0 45.0)
           (-30.0 30.0)
           (-30.0 30.0)
  end
  begin
     id 17 
     name lclavicle
     direction 0.93913 0.332189 -0.087669  
     length 3.52087  
     axis 0 0 0   XYZ
    dof ry rz
    limits (-20.0 10.0)
           (0.0 20.0)
  end
  begin
     id 18 
     name lhumerus
     direction 1 -4.48974e-011 -2.70836e-027   
     length 5.35289   
     axis -180 -30 -90   XYZ
    dof rx ry rz
    limits (-60.0 90.0)
           (-90.0 90.0)
           (-90.0 90.0)
  end
  begin
     id 19
     name lradius
     direction 1 -4.48961e-011 -9.76021e-027   
     length 3.27727   
     axis -180 -30 -90   XYZ
    dof rx
    limits (-10.0 170.0)
  end
  begin
     id 20
     name lwrist
     direction 1 -4.49103e-011 -2.23668e-026   
     length 1.63864   
     axis 1.44924e-014 90 90   XYZ
    dof ry
    limits (-180.0 0.0)
 end
  begin
     id 21 
     name lhand
     direction 1 3.0697e-005 0.000161777   
     length 0.54443   
     axis 2.85318e-014 90 90   XYZ
    dof rx rz
    limits (-90.0 90.0)
           (-45.0 45.0)
  end
  begin
     id 22 
     name lfingers
     direction 1 -4.49027e-011 -8.9447e-026   
     length 0.438912   
     axis 5.70628e-014 90 90   XYZ
    dof rx
    limits (0.0 90.0)
  end
  begin
     id 23
     name lthumb
     direction 0.707058 2.6516e-005 0.707156   
     length 0.630274   
     axis -90 45 -3.53137e-014   XYZ
    dof rx rz
    limits (-45.0 45.0)
           (-45.0 45.0)
  end
  begin
     id 24 
     name rclavicle
     direction -0.95274 0.284984 -0.105215   
     length 3.43401  
     axis 0 0 0   XYZ 
    dof ry rz
    limits (-10.0 20.0)
           (-20.0 0.0)
  end
  begin
     id 25 
     name rhumerus
     direction -0.999999 -0.000575019 -0.00106829  
     length 5.52077   
     axis -180 30 90   XYZ
    dof rx ry rz
    limits (-90.0 60.0)
           (-90.0 90.0)
           (-90.0 90.0)
  end
  begin
     id 26 
     name rradius
     direction -1 -4.4879e-011 -6.35415e-027   
     length 3.32364   
     axis -180 30 90   XYZ
    dof rx
    limits (-10.0 170.0)
  end
  begin
     id 27 
     name rwrist
     direction -1 -4.49048e-011 -9.98542e-027   
     length 1.66182   
     axis 6.32482e-015 -90 -90   XYZ
    dof ry
    limits (-180.0 0.0)
  end
  begin
     id 28
     name rhand
     direction -1 -4.48978e-011 -1.99771e-026   
     length 0.732235   
     axis 1.27479e-014 -90 -90   XYZ
    dof rx rz
    limits (-90.0 90.0)
           (-45.0 45.0)
  end
  begin
     id 29
     name rfingers
     direction -1 -4.49144e-011 -3.99245e-026   
     length 0.590347   
     axis 2.5496e-014 -90 -90   XYZ
    dof rx
    limits (0.0 90.0)
  end
  begin
     id 30
     name rthumb
     direction -0.707107 -6.35121e-011 0.707107   
     length 0.847624   
     axis -90 -45 -2.82974e-014   XYZ
    dof rx rz
    limits (-45.0 45.0)
           (-45.0 45.0)
  end
:hierarchy
  begin
    root lhipjoint rhipjoint lowerback
    lhipjoint lfemur
    lfemur ltibia
    ltibia lfoot
    lfoot ltoes
    rhipjoint rfemur
    rfemur rtibia
    rtibia rfoot
    rfoot rtoes
    lowerback upperback
    upperback thorax
    thorax lowerneck lclavicle rclavicle
    lowerneck upperneck
    upperneck head
    lclavicle lhumerus
    lhumerus lradius
    lradius lwrist
    lwrist lhand lthumb
    lhand lfingers
    rclavicle rhumerus
    rhumerus rradius
    rradius rwrist
    rwrist rhand rthumb
    rhand rfingers
  end

#!OML:ASF G:\Work\Work\Patient Classification 1\Elijah\terrain1\Elijah.ASF
:FULLY-SPECIFIED
:DEGREES
166
root 15.8 21.6033 2.88967 0.421424 9.88733 3.92819
lowerback 2.23245 0.655315 -7.06761
upperback 1.13122 0.733641 -2.25518
thorax -0.143643 0.349321 1.61798
lowerneck -17.54 8.03507 10.0462
upperneck 21.5056 11.7886 -12.7502
head 11.2905 4.78955 -4.47164
rclavicle 4.19933e-015 4.21423e-014
rhumerus -51.202 -13.248 -66.5617
rradius 18.8489
rwrist 12.8497
rhand -12.7836 21.7067
rfingers 7.12502
rthumb 13.3017 -7.84878
lclavicle 4.19933e-015 4.21423e-014
lhumerus -40.8414 -9.13933 80.3294
lradius 75.0901
lwrist 12.2464
lhand -14.5525 28.459
lfingers 7.12502
lthumb 11.5963 58.1181
rfemur -26.367 -1.01809 14.6371
rtibia 21.2796
rfoot 12.8711 -16.7752
rtoes -28.3998
lfemur -11.7435 0.690569 -21.0222
ltibia 72.7619
lfoot -11.3629 -24.6962
ltoes 10.1171
167
root 15.7769 21.4981 3.04704 0.589308 10.3961 3.85213
lowerback 2.37644 0.616985 -6.63957
upperback 0.819422 0.659242 -2.43031
thorax -0.534565 0.330529 1.1987
lowerneck -17.473 7.88674 10.3508
upperneck 21.6553 11.4677 -12.589
head 11.2963 4.68813 -4.52428
rclavicle -2.35808e-014 3.18055e-015
rhumerus -52.2604 -13.5218 -66.4019
rradius 18.983
rwrist 12.2384
rhand -12.6482 21.5277
rfingers 7.12502
rthumb 13.4323 -8.01917
lclavicle -2.35808e-014 3.18055e-015
lhumerus -42.0481 -8.88218 80.0184
lradius 75.4089
lwrist 12.5265
lhand -15.0787 27.6604
lfingers 7.12502
lthumb 11.0888 57.3474
rfemur -25.9576 -0.806837 14.6303
rtibia 21.4258
rfoot 11.0184 -19.1554
rtoes -20.2344
lfemur -12.1967 0.38883 -20.5932
ltibia 74.1386
lfoot -10.4811 -24.6883
ltoes 10.949
168
root 15.7555 21.3948 3.20973 0.632824 10.7883 3.58676
lowerback 2.45219 0.603022 -6.11504
upperback 0.694479 0.639163 -2.4372
thorax -0.699408 0.326804 0.899354
lowerneck -18.8074 7.67415 10.7037
upperneck 22.6025 11.1045 -12.7617
head 11.903 4.46399 -4.7125
rclavicle 5.96354e-016 -2.54444e-014
rhumerus -52.9072 -13.5308 -66.4266
rradius 19.2231
rwrist 11.1535
rhand -11.951 20.85
rfingers 7.12502
rthumb 14.1043 -8.65133
lclavicle 5.96354e-016 -2.54444e-014
lhumerus -42.9307 -8.32088 79.7657
lradius 75.6091
lwrist 12.4406
lhand -15.2054 26.6393
lfingers 7.12502
lthumb 10.9667 56.3328
rfemur -25.5175 -0.565356 14.8563
rtibia 21.7174
rfoot 11.0184 -19.1554
rtoes -20.2344
lfemur -12.4459 0.232573 -19.9127
ltibia 75.4751
lfoot -9.59694 -24.833
ltoes 11.551
169
root 15.7327 21.2931 3.37393 0.735944 11.2915 3.61696
lowerback 2.28717 0.493724 -6.11908
upperback 0.688037 0.507943 -2.34253
thorax -0.606386 0.259182 1.0045
lowerneck -17.6534 7.9097 10.5002
upperneck 21.5175 11.3907 -12.4714
head 11.2702 4.67451 -4.51074
rclavicle -1.31198e-014 6.36111e-015
rhumerus -53.4863 -13.141 -66.5889
rradius 19.9466
rwrist 9.7941
rhand -11.4056 20.2643
rfingers 7.12502
rthumb 14.6297 -9.1997
lclavicle -1.31198e-014 6.36111e-015
lhumerus -43.7456 -7.54103 79.6409
lradius 75.8572
lwrist 12.4663
lhand -15.5334 26.6173
lfingers 7.12502
lthumb 10.6502 56.3274
rfemur -25.078 -0.380474 14.7452
rtibia 22.0477
rfoot 11.0184 -19.1554
rtoes -20.2344
lfemur -12.652 -0.0718583 -19.5677
ltibia 76.7196
lfoot -8.86474 -24.9842
ltoes 11.5473
170
root 15.7071 21.1798 3.53375 0.960397 11.8705 3.99248
lowerback 2.05338 0.396917 -6.50046
upperback 0.764735 0.396294 -2.3233
thorax -0.391356 0.196778 1.24126
lowerneck -17.6437 7.78335 10.8125
upperneck 20.9722 11.1693 -12.9157
head 11.0879 4.56093 -4.75593
rclavicle 7.20594e-015 -3.97569e-015
rhumerus -54.0382 -13.0544 -66.6161
rradius 20.788
rwrist 8.66728
rhand -11.0835 19.8282
rfingers 7.12502
rthumb 14.94 -9.61294
lclavicle 7.20594e-015 -3.97569e-015
lhumerus -44.2594 -6.86188 79.5871
lradius 76.0375
lwrist 12.6035
lhand -15.7556 27.0793
lfingers 7.12502
lthumb 10.4359 56.8003
rfemur -24.7906 -0.44222 14.3232
rtibia 22.4696
rfoot 11.0184 -19.1554
rtoes -20.2344
lfemur -12.8658 -0.545194 -19.5999
ltibia 77.904
lfoot -8.04241 -25.2531
ltoes 12.8209
171
root 15.6782 21.0614 3.68389 1.12639 12.3286 3.89128
lowerback 2.00602 0.343207 -6.27909
upperback 0.887939 0.340497 -2.21213
thorax -0.233492 0.162783 1.23465
lowerneck -18.2056 7.86308 10.6402
upperneck 20.6864 11.2252 -12.8519
head 11.0838 4.56097 -4.67349
rclavicle -6.73383e-015 -3.89618e-014
rhumerus -54.3143 -13.0686 -66.7328
rradius 21.5252
rwrist 7.57677
rhand -10.5714 19.2254
rfingers 7.12502
rthumb 15.4333 -10.1784
lclavicle -6.73383e-015 -3.89618e-014
lhumerus -44.4658 -6.17479 79.5393
lradius 76.1005
lwrist 12.6708
lhand -15.8948 27.6742
lfingers 7.12502
lthumb 10.3016 57.4019
rfemur -24.769 -0.372209 14.4914
rtibia 23.1018
rfoot 11.0184 -19.1554
rtoes -20.2344
lfemur -13.0844 -0.88997 -19.0015
ltibia 79.1207
lfoot -6.50369 -25.7595
ltoes 15.6336
